<?xml version="1.0" encoding="UTF-8"?>
<svg width="189px" height="30px" viewBox="0 0 189 30" version="1.1" xmlns="http://www.w3.org/2000/svg" xmlns:xlink="http://www.w3.org/1999/xlink">
    <!-- Generator: Sketch 44.1 (41455) - http://www.bohemiancoding.com/sketch -->
    <title>Page 1</title>
    <desc>Created with Sketch.</desc>
    <defs>
        <polygon id="path-1" points="1.33631705e-19 0.154151334 1.33631705e-19 25.3644725 14.3407904 25.3644725 14.3407904 0.154151334 0 0.154151334"></polygon>
        <polygon id="path-3" points="5.87008982 5.88385629 5.87008982 0.0780479042 0.207122754 0.0780479042 0.207122754 5.88385629 5.87008982 5.88385629"></polygon>
    </defs>
    <g id="Page-1" stroke="none" stroke-width="1" fill="none" fill-rule="evenodd">
        <g id="01-Home-inicial" transform="translate(-215.000000, -30.000000)">
            <g id="Page-1" transform="translate(215.000000, 30.000000)">
                <path d="M22.754491,15.3592814 C22.754491,8.76043165 28.1036802,3.41317365 34.6993548,3.41317365 C41.2975174,3.41317365 46.6467066,8.76043165 46.6467066,15.3592814 C46.6467066,21.9581312 41.2975174,27.3053892 34.6993548,27.3053892 C28.1036802,27.3053892 22.754491,21.9581312 22.754491,15.3592814 M23.3690258,15.3592814 C23.3690258,21.6197287 28.4420475,26.6932787 34.6993548,26.6932787 C40.9591501,26.6932787 46.0321718,21.6197287 46.0321718,15.3592814 C46.0321718,9.10132245 40.9591501,4.02528415 34.6993548,4.02528415 C28.4420475,4.02528415 23.3690258,9.10132245 23.3690258,15.3592814" id="Fill-1" fill="#FFFFFF"></path>
                <path d="M38.6826347,23.3376351 C37.6755099,23.6969068 36.588016,23.8922156 35.4502915,23.8922156 C30.3242522,23.8922156 26.1676647,19.9016476 26.1676647,14.9803491 C26.1676647,12.7282702 27.0391667,10.6690889 28.4858098,9.10179641 C28.4858098,9.10179641 27.0391667,11.175445 27.0391667,13.9579921 C27.0391667,19.3108989 31.896472,23.3882707 37.5223064,23.3882707 C38.4088776,23.3882707 38.6826347,23.3376351 38.6826347,23.3376351" id="Fill-3" fill="#FFFFFF"></path>
                <path d="M28.2415023,17.5995609 C28.2415023,17.5995609 27.3053892,15.9615917 27.3053892,13.7702546 C27.3053892,9.16869245 30.7060144,5.68862275 35.0929465,5.68862275 C40.2177263,5.68862275 44.3712575,9.75895162 44.3712575,14.778614 C44.3712575,19.2670431 41.1663878,22.754491 37.0755988,22.754491 C34.3651374,22.754491 32.1792004,21.4780556 32.1792004,21.4780556 C33.0701391,21.8518864 34.0589556,22.0609365 35.0929465,22.0609365 C39.1987936,22.0609365 42.5241282,18.7997546 42.5241282,14.778614 C42.5241282,10.7574734 39.1987936,7.49875088 35.0929465,7.49875088 C30.989609,7.49875088 27.6642744,10.7574734 27.6642744,14.778614 C27.6642744,15.7795952 27.8700687,16.7313881 28.2415023,17.5995609" id="Fill-5" fill="#FFFFFF"></path>
                <path d="M45.508982,8.13298906 C45.508982,8.13298906 42.1648005,1.22319357 33.7017719,1.22319357 C26.5215446,1.22319357 20.5128932,7.36162822 20.5128932,14.5485145 C20.5128932,20.4323252 24.0968276,23.8922156 24.0968276,23.8922156 C24.0968276,23.8922156 19.3413174,19.9979667 19.3413174,14.4935956 C19.3413174,7.12198214 25.1423478,0 33.931638,0 C42.6492495,0 45.508982,8.13298906 45.508982,8.13298906" id="Fill-7" fill="#FFFFFF"></path>
                <path d="M20.4790419,20.3205459 C20.4790419,20.3205459 24.5648899,28.3514849 34.2146058,28.3514849 C41.6873739,28.3514849 47.6896375,22.1771204 47.6896375,14.803509 C47.6896375,6.87041641 43.5662127,3.41317365 43.5662127,3.41317365 C43.5662127,3.41317365 48.9221557,7.31699784 48.9221557,14.9440065 C48.9221557,22.3953933 42.8071618,29.5808383 34.1194113,29.5808383 C26.8044658,29.5808383 22.0096692,24.4225719 20.4790419,20.3205459" id="Fill-9" fill="#FFFFFF"></path>
                <path d="M23.8922156,14.2090269 C23.8922156,8.8762563 28.1296981,4.5508982 33.6870939,4.5508982 C39.4254045,4.5508982 44.3712575,8.8762563 44.3712575,14.2090269 C44.3712575,17.8176686 42.4219646,20.9752302 39.4075678,22.639215 C38.7195821,22.8597431 37.9806345,22.9800311 37.2238502,22.9800311 L37.086253,22.9775251 C41.0612817,21.9224986 43.744426,18.3865309 43.744426,14.2090269 C43.744426,9.20203646 39.1017964,5.14231449 33.7151229,5.14231449 C28.4966238,5.14231449 24.5164989,9.20203646 24.5164989,14.2090269 C24.5164989,19.2185233 29.3553319,23.3007993 34.5738311,23.3007993 L34.7420054,23.2982933 C35.4682125,23.4661954 36.2199006,23.5639294 36.9868773,23.5864834 C36.1816792,23.7844575 35.3331635,23.8922156 34.4515225,23.8922156 C28.8915785,23.8922156 23.8922156,19.5417975 23.8922156,14.2090269" id="Fill-11" fill="#FFFFFF"></path>
                <path d="M21.6167665,14.7904192 C21.6167665,8.14514633 26.7663833,2.2754491 33.7426377,2.2754491 C40.8114751,2.2754491 46.6467066,7.81023868 46.6467066,14.7904192 C46.6467066,21.4457644 41.4670629,27.3053892 34.5558668,27.3053892 C27.5070473,27.3053892 21.6167665,21.8587332 21.6167665,14.7904192 M22.2273138,14.7954554 C22.2273138,21.5162713 27.8298367,26.6985265 34.5333466,26.6985265 C41.1067398,26.6985265 46.0311547,21.1259654 46.0311547,14.7954554 C46.0311547,8.15773684 40.4836812,2.89238425 33.7601534,2.89238425 C27.1242041,2.89238425 22.2273138,8.47501777 22.2273138,14.7954554" id="Fill-13" fill="#FFFFFF"></path>
                <g id="Group-17" transform="translate(0.000000, 2.275449)">
                    <mask id="mask-2" fill="white">
                        <use xlink:href="#path-1"></use>
                    </mask>
                    <g id="Clip-16"></g>
                    <path d="M3.07295609,2.84745563 L3.07295609,11.4685117 L6.71386427,11.4685117 C9.29972255,11.4685117 11.2348024,10.2670746 11.2348024,7.20887099 C11.2348024,4.1531497 9.31944311,2.84745563 6.71386427,2.84745563 L3.07295609,2.84745563 Z M3.07295609,13.9955014 L3.07295609,25.3644725 L-0.000986027944,25.3644725 L-0.000986027944,0.154151334 L6.92093014,0.154151334 C10.8477864,0.154151334 14.3407904,2.1946086 14.3407904,7.07234404 C14.3407904,11.7738356 11.1312695,13.9955014 6.92093014,13.9955014 L3.07295609,13.9955014 Z" id="Fill-15" fill="#FFFFFF" mask="url(#mask-2)"></path>
                </g>
                <path d="M111.257379,4.94948268 L111.257379,24.6313556 L116.843534,24.6313556 C122.027588,24.6313556 126.38708,21.299288 126.38708,14.62283 C126.38708,8.40231314 121.897796,4.94948268 116.843534,4.94948268 L111.257379,4.94948268 Z M108.083832,27.3053892 L108.083832,2.2754491 L117.128568,2.2754491 C123.750516,2.2754491 129.700599,6.18668531 129.700599,14.62283 C129.700599,22.3368623 124.559809,27.3053892 117.128568,27.3053892 L108.083832,27.3053892 Z" id="Fill-18" fill="#FFFFFF"></path>
                <path d="M84.9912559,17.057807 L93.390009,17.057807 L89.2414724,7.02569965 L84.9912559,17.057807 Z M94.3610513,19.3979639 L84.0125877,19.3979639 L80.7003675,27.3028837 L77.3652695,27.3053892 L88.8271271,1.13772455 L89.6634436,1.13772455 L101.257485,27.3053892 L97.6427674,27.3028837 L94.3610513,19.3979639 Z" id="Fill-20" fill="#FFFFFF"></path>
                <path d="M141.877483,17.057807 L150.276237,17.057807 L146.1277,7.02569965 L141.877483,17.057807 Z M151.247279,19.3979639 L140.898815,19.3979639 L137.586595,27.3028837 L134.251497,27.3053892 L145.713355,1.13772455 L146.549671,1.13772455 L158.143713,27.3053892 L154.528995,27.3028837 L151.247279,19.3979639 Z" id="Fill-22" fill="#FFFFFF"></path>
                <path d="M67.3883003,7.25147878 C67.0057248,5.35462181 65.2203724,3.73407865 62.4548266,3.73407865 C60.1793775,3.73407865 58.2064881,4.94388506 58.2064881,7.62487582 C58.2064881,9.94740542 59.3717181,11.0178103 63.5025334,12.3371465 C69.068632,14.1145164 70.5389222,16.516704 70.5389222,19.842427 C70.5389222,23.5216325 67.69086,27.3053892 62.4548266,27.3053892 C57.3138119,27.3053892 54.6107784,24.0070487 54.6107784,21.0895731 L57.3863262,19.6880896 C57.3863262,22.5308857 59.3992235,24.7115244 62.5573468,24.7115244 C65.6929657,24.7115244 67.4558136,22.4611849 67.4558136,19.9793393 C67.4558136,17.5771516 66.4681187,16.4046849 62.4023162,15.1376243 C57.6538791,13.6614613 55.0908732,11.5505234 55.0908732,7.93355071 C55.0908732,3.73158933 58.271501,1.13772455 62.8649075,1.13772455 C68.8085806,1.13772455 70.0938343,5.98939678 70.0938343,5.98939678 L67.3883003,7.25147878 Z" id="Fill-24" fill="#FFFFFF"></path>
                <path d="M176.609857,7.25147878 C176.227282,5.35462181 174.441929,3.73407865 171.676383,3.73407865 C169.403435,3.73407865 167.428045,4.94388506 167.428045,7.62487582 C167.428045,9.94740542 168.595775,11.0178103 172.72409,12.3371465 C178.292689,14.1145164 179.760479,16.516704 179.760479,19.842427 C179.760479,23.5216325 176.912417,27.3053892 171.676383,27.3053892 C166.535369,27.3053892 163.832335,24.0070487 163.832335,21.0895731 L166.607883,19.6880896 C166.607883,22.5308857 168.62078,24.7115244 171.778904,24.7115244 C174.914523,24.7115244 176.677371,22.4611849 176.677371,19.9793393 C176.677371,17.5771516 175.689676,16.4046849 171.623873,15.1376243 C166.875436,13.6614613 164.31243,11.5505234 164.31243,7.93355071 C164.31243,3.73158933 167.493058,1.13772455 172.086464,1.13772455 C178.030138,1.13772455 179.315391,5.98939678 179.315391,5.98939678 L176.609857,7.25147878 Z" id="Fill-26" fill="#FFFFFF"></path>
                <g id="Group-30" transform="translate(183.173653, 21.616766)">
                    <mask id="mask-4" fill="white">
                        <use xlink:href="#path-3"></use>
                    </mask>
                    <g id="Clip-29"></g>
                    <path d="M2.45213772,2.7672495 L3.04091018,2.7672495 C3.45817066,2.7672495 3.82679341,2.7380479 3.82679341,2.231002 C3.82679341,1.80890619 3.46841018,1.73722954 3.12026647,1.73722954 L2.45213772,1.73722954 L2.45213772,2.7672495 Z M0.765176647,2.9663513 C0.765176647,4.37068263 1.7686497,5.3980479 3.04858982,5.3980479 C4.31317066,5.3980479 5.31408383,4.37068263 5.31408383,2.9663513 C5.31408383,1.59918563 4.31317066,0.561201597 3.04858982,0.561201597 C1.7686497,0.561201597 0.765176647,1.59918563 0.765176647,2.9663513 L0.765176647,2.9663513 Z M3.04858982,5.88385629 C1.50242216,5.88385629 0.207122754,4.65473453 0.207122754,2.9663513 C0.207122754,1.30186028 1.50242216,0.0780479042 3.04858982,0.0780479042 C4.57683832,0.0780479042 5.87213772,1.30186028 5.87213772,2.9663513 C5.87213772,4.65473453 4.57683832,5.88385629 3.04858982,5.88385629 L3.04858982,5.88385629 Z M2.45213772,3.20261876 L2.45213772,4.65473453 L1.96832036,4.65473453 L1.96832036,1.30186028 L3.19706287,1.30186028 C3.95478743,1.30186028 4.33620958,1.59918563 4.33620958,2.25223952 C4.33620958,2.84954491 3.97526647,3.11766866 3.49912874,3.18403593 L4.41300599,4.65473453 L3.87031138,4.65473453 L3.01787126,3.20261876 L2.45213772,3.20261876 Z" id="Fill-28" fill="#FFFFFF" mask="url(#mask-4)"></path>
                </g>
            </g>
        </g>
    </g>
</svg>